<svg width="347" height="246" viewBox="0 0 347 246" fill="none" xmlns="http://www.w3.org/2000/svg">
<path fill-rule="evenodd" clip-rule="evenodd" d="M124.014 0.364341C116.4 0.929232 109.363 2.3479 101.834 4.83676C94.6153 7.22265 91.764 8.44586 88.8702 10.3965C87.7736 11.1354 86.7309 11.7403 86.554 11.7403C86.3765 11.7403 85.4493 12.3591 84.4934 13.1152C83.5376 13.8717 81.1455 14.969 79.178 15.554C71.9375 17.7072 64.6031 22.0757 59.8428 27.0715C54.5341 32.6432 52.0204 36.7853 49.9084 43.441C45.867 56.1775 46.7541 68.0202 52.6825 80.484L54.4301 84.1575L53.7127 87.1578C51.6264 95.8848 51.6026 97.1395 53.4537 100.592C53.9956 101.602 55.0387 102.933 55.7718 103.55L57.105 104.671L56.3189 108.014C55.8863 109.854 55.2786 111.612 54.9681 111.922C54.5336 112.357 52.288 112.351 45.2078 111.895C32.2975 111.064 0 110.606 0 111.254C0 111.788 4.79504 112.161 16.9326 112.57C36.4262 113.226 48.994 113.783 54.6137 114.237C65.9023 115.152 93.1329 117.552 100.403 118.274C104.338 118.665 110.026 119.195 113.043 119.452C116.06 119.709 122.285 120.338 126.876 120.85C131.466 121.362 137.369 121.923 139.992 122.098C142.616 122.273 147.767 122.911 151.44 123.516C155.113 124.122 160.049 124.871 162.41 125.18C166.261 125.685 172.321 126.687 179.82 128.06C194.894 130.819 208.944 133.237 218.683 134.746C232.355 136.865 239.504 138.145 243.258 139.145C246.748 140.076 252.168 141.086 268.06 143.765C274.49 144.849 282.211 146.459 284.516 147.195C285.303 147.446 289.489 148.411 293.817 149.339C304.281 151.581 309.443 152.732 311.465 153.274C312.383 153.52 314.53 154.071 316.235 154.498C317.94 154.925 320.409 155.582 321.72 155.959C324.912 156.875 341.617 160.342 344.615 160.711L347 161.005L345.092 160.1C340.873 158.101 334.614 156.306 319.634 152.8C315.864 151.917 312.477 150.974 312.107 150.704C311.545 150.294 311.659 149.747 312.803 147.358C318.27 135.935 320.293 126.139 320.282 111.133C320.275 99.9792 320.024 98.5305 316.743 90.6525C313.771 83.513 310.545 79.2303 305.082 75.1698C297.364 69.4322 284.326 68.3363 273.876 72.5465C268.978 74.5195 266.166 76.4745 263.196 79.9697C257.536 86.6306 254.669 96.4554 255.383 106.741C255.569 109.419 255.813 113.004 255.926 114.708C256.166 118.33 255.307 129.927 254.619 132.346C253.989 134.564 252.456 137.926 251.926 138.253C251.693 138.398 250.784 138.31 249.908 138.058C249.031 137.807 246.263 137.258 243.758 136.839C241.253 136.419 238.967 135.827 238.679 135.522C238.39 135.216 237.909 131.326 237.609 126.864C237.276 121.918 236.405 115.137 235.374 109.464C234.445 104.351 233.28 97.8865 232.787 95.0978C231.911 90.1439 229.831 81.0442 228.946 78.2893C228.4 76.5941 228.594 76.2561 230.583 75.4252C231.446 75.0649 232.579 74.3121 233.1 73.753C234.424 72.3334 235.343 68.1022 235.017 64.9364C234.327 58.2626 226.861 45.5876 218.445 36.8034C215.568 33.8016 214.224 31.8924 212.343 28.1379C208.383 20.2309 203.612 14.5991 196.753 9.73248C193.493 7.42 191.271 6.35601 186.251 4.70281C179.471 2.46994 176.013 2.0247 167.888 2.33647C162.505 2.54335 160.306 2.45563 159.165 1.98751C155.131 0.331925 136.218 -0.541391 124.014 0.364341ZM149.459 2.6611C152.83 3.16164 155.681 3.66359 155.794 3.77752C155.908 3.89098 153.97 4.99074 151.489 6.22206C145.939 8.97406 141.781 12.075 138.27 16.0774C133.012 22.0714 130.806 26.2859 128.567 34.622L127.479 38.674L125.777 35.2026C122.085 27.6703 117.025 22.2673 111.027 19.4529C103.081 15.7241 101.499 15.2508 93.5383 14.2168L87.1502 13.3873L89.007 12.1803C94.0029 8.9321 105.373 5.10371 115.667 3.20263C122.699 1.90361 122.857 1.89171 133.792 1.81686C140.997 1.76776 144.831 1.97417 149.459 2.6611ZM181.699 5.33491C191.831 8.23849 197.298 11.3542 203.352 17.6743C207.976 22.5 211.528 29.0255 213.228 35.8138C214.612 41.3383 214.717 50.6759 213.459 56.0736C211.313 65.2739 207.85 71.5387 201.36 77.9646C195.291 83.9735 188.759 87.3762 179.133 89.5447C170.269 91.5411 157.907 90.3555 150.424 86.7912C145.525 84.4583 138.878 78.7927 136.052 74.5424C133.395 70.5472 132.899 69.5118 131.311 64.6542C128.257 55.308 127.965 42.0843 130.621 33.4303C134.786 19.8605 144.09 10.3031 157.388 5.93413C164.499 3.59782 174.756 3.34516 181.699 5.33491ZM102.938 18.1234C110.522 20.7028 114.421 23.0878 118.751 27.799C125.959 35.6422 127.593 41.6853 127.493 60.1255C127.458 66.4962 127.314 67.718 126.173 71.328C121.137 87.2594 106.731 97.5266 89.3915 97.5428C85.0944 97.5471 78.1124 96.6075 73.4314 95.3957C69.3728 94.345 64.5296 91.7275 61.2661 88.8206C51.8492 80.4321 46.9902 63.2112 50.0887 49.2053C52.2155 39.5907 54.9534 34.4876 61.5108 27.9172C65.3009 24.1198 66.7385 23.032 70.1155 21.4059C80.1052 16.597 82.8383 15.9506 91.7287 16.2962C97.5359 16.5221 98.8647 16.7386 102.938 18.1234ZM217.308 38.0781C220.992 42.0838 227.796 51.8681 230.152 56.5503C233.302 62.8079 234.018 67.471 232.333 70.7512C231.348 72.6685 228.666 74.5734 227.954 73.8617C227.716 73.6243 226.322 69.916 224.855 65.6214C223.388 61.3268 220.902 54.9471 219.329 51.4448C217.351 47.0372 216.336 44.0912 216.035 41.8755C215.795 40.1146 215.486 38.1916 215.348 37.6014C214.999 36.1074 215.638 36.2628 217.308 38.0781ZM220.073 58.7831C222.805 65.5161 223.842 68.5355 225.61 74.9033C225.829 75.6898 226.792 79.1221 227.75 82.5305C228.917 86.6821 229.442 89.4551 229.34 90.9319C229.243 92.3315 229.37 93.0661 229.688 92.9436C230.426 92.6594 232.78 106.281 234.686 121.858C234.99 124.349 235.165 128.103 235.075 130.201L234.911 134.014L230.856 133.977C225.509 133.928 222.949 133.161 220.99 131.024C220.127 130.083 219.274 129.462 219.093 129.643C218.911 129.824 219.378 130.613 220.129 131.397C220.88 132.181 221.311 132.822 221.085 132.822C220.859 132.822 216.472 132.096 211.337 131.209C206.201 130.321 199.746 129.244 196.991 128.816C194.237 128.388 190.051 127.617 187.69 127.103C182.649 126.006 166.877 123.538 149.77 121.17C138.914 119.667 133.026 118.992 124.491 118.273C123.048 118.152 117.253 117.622 111.612 117.098C90.5749 115.14 79.116 114.174 68.447 113.459C62.4137 113.055 57.4403 112.687 57.395 112.641C57.3497 112.596 57.7346 110.843 58.2512 108.747C59.5137 103.619 61.0529 94.9471 61.0529 92.9603C61.0529 92.0745 61.1884 91.3495 61.3539 91.3495C61.5189 91.3495 62.7271 92.1198 64.0383 93.0613C69.7129 97.1352 78.7716 99.4534 89.0209 99.4534C98.4445 99.4534 109.321 95.8 115.441 90.5796L117.95 88.4387L119.359 90.1463C121.572 92.8296 125.233 94.3512 129.339 94.2945C131.084 94.2707 131.168 94.3389 131.16 95.789C131.156 96.6246 130.939 99.3266 130.679 101.793C130.419 104.26 130.31 106.382 130.438 106.509C130.988 107.06 132.123 105.406 132.13 104.043C132.137 102.483 132.803 100.964 133.171 101.667C133.288 101.891 133.673 102.99 134.025 104.108C134.763 106.456 135.724 107.486 136.473 106.736C136.815 106.395 136.422 104.566 135.201 100.822C134.229 97.8407 133.407 95.2317 133.374 95.0239C133.341 94.8165 135.139 93.8951 137.369 92.9769C141.213 91.3938 143.409 89.711 144.805 87.2789C145.3 86.417 145.537 86.4719 149.726 88.4168C156.161 91.4053 162.051 92.4745 170.042 92.1055C176.283 91.8176 178.495 91.4238 185.067 89.4336C194.934 86.4452 203.199 80.1884 209.089 71.2503C213.03 65.2701 214.398 61.3902 215.848 52.0788C216.008 51.053 216.316 50.4161 216.539 50.6487C216.761 50.8794 218.351 54.54 220.073 58.7831ZM130.438 67.6074C131.291 70.214 133.325 74.3689 134.969 76.8611L135.945 78.3417L132.245 78.6625C130.21 78.8389 127.706 79.1116 126.682 79.2684C124.99 79.5273 124.855 79.4715 125.21 78.6587C126.314 76.1327 128.334 69.445 128.601 67.4276C128.769 66.1644 129.069 65.1309 129.267 65.1309C129.466 65.1309 129.992 66.2454 130.438 67.6074ZM292.544 72.9931C301.225 74.3012 306.626 78.1291 311.45 86.3932C316.148 94.4423 318.141 101.04 318.142 108.547C318.143 111.185 317.973 111.839 317.07 112.677C315.756 113.896 306.769 118.676 303.828 119.72C294.739 122.947 281.165 122.405 270.922 118.405C267.766 117.172 262.33 113.887 259.734 111.645C258.003 110.149 257.824 109.766 257.559 107.003C257.282 104.096 257.978 97.6577 258.944 94.2097C259.908 90.7665 260.151 90.1348 261.887 86.5844C264.638 80.9588 268.211 77.7063 274.742 74.8833C280.852 72.2423 284.786 71.8247 292.544 72.9931ZM149.715 76.9974C148.699 77.8193 148.658 78.0076 149.252 79.1173C150.117 80.7305 151.092 81.0437 152.461 80.147C153.759 79.2966 153.916 77.9227 152.837 76.8439C151.852 75.8605 151.073 75.8991 149.715 76.9974ZM107.894 81.1338C105.481 82.8227 107.542 86.0533 110.004 84.4411C111.408 83.5216 111.371 81.999 109.921 81.0422C109.091 80.494 108.788 80.5079 107.894 81.1338ZM139.204 82.0166C140.457 82.6516 141.765 83.5101 142.109 83.9248C143.85 86.0209 141.92 89.0623 137.671 90.9209C135.697 91.7842 134.298 91.9987 130.453 92.0283C125.189 92.0683 122.8 91.2689 121.005 88.8663C120.22 87.8152 120.167 87.4062 120.631 86.0018C121.696 82.7769 126.134 80.9774 133.211 80.9016C136.245 80.8692 137.34 81.0732 139.204 82.0166ZM58.6652 93.4646C58.6623 98.2268 58.0136 101.36 57.0311 101.36C56.2164 101.36 55.0688 99.6164 54.6605 97.7587C54.3428 96.3129 55.1084 87.8023 55.6321 86.9552C55.7852 86.7073 56.5312 87.0982 57.2896 87.8243C58.6118 89.0904 58.668 89.3216 58.6652 93.4646ZM140.708 94.448C140.234 95.0186 140.235 95.3085 140.713 95.8839C141.45 96.771 142.616 96.0016 142.616 94.6282C142.616 93.5547 141.535 93.4527 140.708 94.448ZM227.382 96.1384C226.723 97.5924 224.959 100.488 223.46 102.574C221.961 104.659 219.857 108.082 218.784 110.179C216.902 113.857 216.826 114.184 216.637 119.398C216.529 122.371 216.636 124.998 216.874 125.236C217.134 125.496 217.228 124.419 217.109 122.551C216.749 116.909 218.762 111.327 224.031 103.348C227.743 97.7277 229.145 94.9848 228.789 94.0462C228.674 93.743 228.041 94.6845 227.382 96.1384ZM119.327 96.4306C119.42 96.9135 119.814 97.3082 120.205 97.3082C121.227 97.3082 121.079 95.9229 120.035 95.7222C119.398 95.5997 119.204 95.7938 119.327 96.4306ZM148.075 97.1113C147.659 97.7844 148.578 98.7035 149.252 98.2874C150.008 97.8202 149.886 96.5932 149.083 96.5932C148.705 96.5932 148.252 96.8263 148.075 97.1113ZM139.853 101.956C139.146 102.807 139.918 103.966 140.934 103.576C141.79 103.247 141.766 101.792 140.899 101.503C140.61 101.407 140.139 101.611 139.853 101.956ZM113.831 103.013C113.525 103.81 114.235 104.424 114.951 103.982C115.664 103.542 115.526 102.314 114.764 102.314C114.398 102.314 113.978 102.629 113.831 103.013ZM121.839 103.313C121.419 103.993 122.811 105.384 123.491 104.964C124.4 104.403 124.101 102.79 123.088 102.79C122.579 102.79 122.017 103.025 121.839 103.313ZM263.61 116.308C271.978 122.287 288.195 124.985 300.036 122.368C304.631 121.352 311.368 118.412 314.88 115.891C318.343 113.404 318.42 113.579 317.398 121.62C316.704 127.078 315.609 133.186 315.154 134.137C314.447 135.615 305.94 139.723 301.175 140.888C299.096 141.396 296.107 141.961 294.533 142.142C290.682 142.587 289.742 143.129 292.067 143.564C295.467 144.202 309.333 140.118 312.666 137.497C313.345 136.964 314.019 136.646 314.163 136.79C314.86 137.487 310.446 148.176 308.948 149.419C308.412 149.864 307.381 149.824 304.259 149.236C299.88 148.411 285.476 144.943 279.746 143.333C278.326 142.934 278.33 142.93 280.223 142.826C281.83 142.738 281.491 142.592 278.077 141.903C275.847 141.452 273.208 140.814 272.214 140.484C268.787 139.35 263.332 135.914 260.17 132.9C257.594 130.444 257.06 129.686 257.316 128.848C257.488 128.281 257.754 124.211 257.904 119.804L258.178 111.79L259.661 113.168C260.477 113.926 262.254 115.339 263.61 116.308ZM259.654 134.133C261.62 136.228 266.126 138.902 270.32 140.463C272.02 141.095 271.937 142.118 270.22 141.687C269.629 141.539 267.774 141.204 266.099 140.944C261.262 140.19 255.581 139.101 255.364 138.884C255.165 138.685 256.528 132.903 256.932 132.227C257.276 131.653 257.421 131.754 259.654 134.133ZM73.7824 143.124C70.694 144.24 65.7263 148.033 54.8522 157.576C52.8847 159.302 49.7801 162.001 47.9533 163.573C37.0939 172.914 10.8755 198.64 8.08952 202.687C5.97079 205.764 5.67315 209.094 7.0974 213.781C8.30081 217.741 9.09975 218.578 14.3441 221.371C20.2071 224.493 27.4958 228.163 27.8339 228.163C27.9951 228.163 31.198 229.525 34.9514 231.19C38.7052 232.855 42.9479 234.6 44.3793 235.067C45.8107 235.534 47.1968 236.074 47.4591 236.268C47.7214 236.461 48.7946 236.893 49.844 237.226C50.8933 237.56 53.0397 238.409 54.6137 239.113C56.1878 239.817 58.7634 240.879 60.3375 241.475C61.9115 242.07 63.6286 242.74 64.1533 242.965C64.6779 243.189 66.0731 243.634 67.2536 243.952C68.4341 244.271 69.6041 244.71 69.8531 244.928C70.1026 245.146 73.1681 245.324 73.1681 245.324C73.1681 245.324 76.2694 244.925 71.7849 243.482C63.4803 240.812 36.8245 230.238 28.6186 226.359C26.3887 225.304 23.0632 223.768 21.2288 222.943C16.4738 220.806 10.5469 217.247 9.77133 216.063C9.40787 215.508 8.8708 213.085 8.57841 210.68C8.11193 206.84 8.14484 206.113 8.84886 204.721C9.87388 202.695 34.856 177.694 43.0628 170.482C46.4932 167.467 50.8309 163.605 52.702 161.901C63.4626 152.1 71.0647 145.956 73.6546 144.967C76.1869 144.001 81.6893 144.181 88.479 145.453C90.5777 145.845 94.4412 146.497 97.0646 146.9C109.916 148.876 126.06 152.905 132.215 155.672C136.325 157.519 137.946 160.947 136.91 165.597C136.324 168.223 133.396 174.654 131.647 177.156C131.188 177.811 129.308 181.136 127.468 184.545C121.917 194.829 121.102 196.302 118.695 200.41C117.423 202.581 116.382 204.462 116.382 204.591C116.382 205.012 110.525 214.516 108.76 216.96C107.813 218.271 105.814 221.328 104.317 223.753C102.82 226.178 100.39 230.101 98.9153 232.47C97.3947 234.912 94.4408 238.627 92.0907 241.05C88.2959 244.964 88.054 245.324 89.2203 245.324C91.3018 245.324 95.9318 240.364 99.7986 233.991C100.869 232.228 103.574 227.996 105.811 224.587C113.5 212.873 116.524 207.883 121.267 199.084C123.882 194.234 126.304 189.815 126.65 189.266C126.996 188.716 128.261 186.42 129.462 184.163C130.663 181.907 132.669 178.28 133.921 176.105C137.224 170.364 137.739 169.128 138.304 165.594C139.142 160.353 137.867 156.63 134.622 154.841C132.388 153.609 128.402 152.126 124.729 151.159C123.418 150.814 120.735 150.103 118.767 149.579C116.799 149.056 113.473 148.265 111.374 147.821C99.262 145.263 97.9551 145.005 87.2866 143.046C82.8026 142.224 76.1707 142.262 73.7824 143.124ZM283.746 142.907C284.846 143.223 285.524 143.209 285.869 142.864C286.228 142.505 285.754 142.369 284.254 142.399L282.131 142.442L283.746 142.907ZM96.7942 150.111C95.8946 150.716 94.8949 151.968 94.5161 152.961C93.9185 154.531 93.9304 154.866 94.623 155.923C95.7477 157.639 98.03 158.656 101.351 158.922C103.967 159.132 104.395 159.032 105.749 157.893C107.659 156.287 108.108 154.359 107.077 152.188C105.582 149.04 100.045 147.922 96.7942 150.111ZM105.054 152.415C106.606 154.068 106.676 154.739 105.454 156.247C104.665 157.221 104.125 157.373 101.438 157.373C98.8094 157.373 98.1454 157.196 97.1032 156.217C95.4643 154.679 95.5478 153.978 97.5974 152.045C99.1962 150.539 99.4857 150.441 101.532 150.718C103.119 150.933 104.112 151.412 105.054 152.415ZM63.3601 155.484C59.5838 158.444 37.4421 178.844 30.267 185.973C23.7787 192.421 18.8405 198.147 18.8405 199.224C18.8405 200.105 20.0783 200.896 26.4722 204.104C35.198 208.481 54.8074 216.719 56.5107 216.723C56.9223 216.724 63.8571 219.554 67.0151 221.009C68.5176 221.702 76.6987 224.808 80.3347 226.066C84.8054 227.614 85.4855 227.549 87.0958 225.422C87.8399 224.439 88.9431 223.098 89.5465 222.442C90.1504 221.787 91.8741 219.472 93.3776 217.297C94.8805 215.123 98.0539 210.618 100.429 207.287C113.95 188.321 124.968 171.484 124.968 169.789C124.968 169.415 125.182 168.976 125.445 168.813C126.29 168.291 125.954 167.313 124.74 166.76C122.853 165.9 108.563 162.083 102.311 160.768C96.3501 159.514 77.6312 154.955 71.7067 153.314C69.8274 152.793 68.0754 152.367 67.8136 152.367C67.5512 152.367 65.5475 153.77 63.3601 155.484ZM76.7931 156.133C80.597 157.152 86.6069 158.676 90.1485 159.52C93.69 160.363 101.202 162.238 106.843 163.686C112.483 165.134 118.707 166.681 120.675 167.124C123.359 167.728 124.294 168.144 124.418 168.791C124.51 169.265 124.39 169.785 124.151 169.948C123.912 170.111 122.884 171.638 121.867 173.342C115.258 184.411 94.3339 214.307 88.6159 220.852L84.3823 225.697L80.4687 224.25C78.3161 223.454 75.3741 222.383 73.9313 221.871C72.4884 221.359 69.0542 220.01 66.2997 218.873C63.5451 217.735 58.6084 215.801 55.3292 214.575C52.05 213.349 47.9719 211.738 46.2667 210.996C44.5615 210.253 41.7712 209.07 40.066 208.367C38.3608 207.664 35.8924 206.592 34.5808 205.984C24.1421 201.149 20.9869 199.564 20.9869 199.159C20.9869 197.424 50.7316 168.174 64.3278 156.538C66.2329 154.908 67.3805 154.275 68.4255 154.277C69.224 154.279 72.9892 155.114 76.7931 156.133ZM129.976 168.098C129.814 168.361 129.909 168.575 130.186 168.575C130.464 168.575 130.691 168.361 130.691 168.098C130.691 167.836 130.597 167.622 130.481 167.622C130.365 167.622 130.138 167.836 129.976 168.098ZM129.053 169.865C128.794 170.545 128.848 170.6 129.32 170.132C129.646 169.809 129.792 169.424 129.645 169.278C129.498 169.131 129.232 169.395 129.053 169.865ZM123.531 178.452C122.406 180.23 119.947 184.044 118.067 186.928C113.956 193.235 112.16 196.084 110.108 199.561C108.232 202.738 101.429 212.419 95.3413 220.576C92.8787 223.875 89.7402 228.212 88.366 230.214C85.0763 235.006 83.975 235.575 79.3254 234.884C76.1058 234.405 72.7307 233.345 62.4838 229.595C57.7317 227.855 56.2321 227.277 55.0907 226.744C53.8301 226.155 51.8812 225.359 42.1756 221.468C32.7454 217.687 24.5356 213.821 16.4976 209.376C10.7911 206.221 10.0165 205.894 10.0165 206.637C10.0165 207.613 16.7094 211.748 23.3675 214.887C25.5998 215.94 28.2847 217.204 29.334 217.697C36.0231 220.842 62.5587 231.367 71.8598 234.565C77.6965 236.572 82.8507 236.973 85.1536 235.6C87.2909 234.326 96.8366 221.548 105.31 208.618C107.801 204.816 110.615 200.55 111.561 199.138C116.998 191.026 124.014 179.534 124.014 178.739C124.014 178.604 124.466 177.859 125.02 177.083C125.573 176.306 125.925 175.569 125.8 175.446C125.676 175.322 124.655 176.675 123.531 178.452ZM14.1867 214.143C13.9916 214.338 13.8323 215.094 13.8323 215.824C13.8323 217.729 17.0314 220.005 22.1517 221.743C24.6511 222.591 25.0498 222.469 25.4886 220.722C25.9189 219.01 24.9683 218.082 20.6631 216.012C16.8511 214.179 14.7557 213.574 14.1867 214.143ZM41.2193 214.858C40.334 215.836 40.3345 215.867 41.2365 216.526C42.5868 217.513 44.3588 217.396 44.3588 216.319C44.3588 215.534 43.0037 213.862 42.3679 213.862C42.2324 213.862 41.7158 214.31 41.2193 214.858ZM47.1753 216.858C45.0613 218.281 44.9359 219.249 46.7021 220.506C48.0515 221.467 48.2313 221.484 49.575 220.79C50.3634 220.383 51.2582 219.582 51.5635 219.012C52.0433 218.116 51.9446 217.825 50.8356 216.872C49.2554 215.513 49.1719 215.513 47.1753 216.858ZM19.2293 217.704C22.5395 219.252 24.7031 221.017 22.4141 220.301C20.5911 219.732 16.8215 217.688 16.1886 216.926C15.3987 215.975 15.693 216.05 19.2293 217.704ZM49.4767 218.48C49.678 219.085 48.2838 219.706 47.6313 219.303C47.3532 219.131 47.3981 218.751 47.7463 218.332C48.3625 217.589 49.2034 217.662 49.4767 218.48Z" fill="#333333"/>
<path d="M71.7849 243.482C76.2694 244.925 73.1681 245.324 73.1681 245.324C80.3256 246.256 83.7865 246.194 89.2203 245.324C88.054 245.324 88.2959 244.964 92.0907 241.05C88.0947 245.012 83.2034 245.179 71.7849 243.482Z" fill="#333333"/>
</svg>
